<svg id="Ebene_1" data-name="Ebene 1" xmlns="http://www.w3.org/2000/svg" viewBox="0 0 849.94 102" fill="#FFFFFF"><path d="M23.45,62.59a17.6,17.6,0,0,1-8.89-2.24A16.22,16.22,0,0,1,8.41,54.2a17.5,17.5,0,0,1-2.24-8.89,17.62,17.62,0,0,1,2.24-9,16.31,16.31,0,0,1,6.15-6.16A17.6,17.6,0,0,1,23.45,28a17.46,17.46,0,0,1,8.86,2.23,16.38,16.38,0,0,1,6.12,6.16,18.17,18.17,0,0,1,2.3,9,17.42,17.42,0,0,1-2.27,8.89,16.5,16.5,0,0,1-6.15,6.15A17.47,17.47,0,0,1,23.45,62.59Zm0-4.35a12.5,12.5,0,0,0,6.46-1.68A11.93,11.93,0,0,0,34.39,52,13.48,13.48,0,0,0,36,45.31a13.65,13.65,0,0,0-1.62-6.68A11.81,11.81,0,0,0,29.91,34a12.5,12.5,0,0,0-6.46-1.68A12.56,12.56,0,0,0,17,34a12,12,0,0,0-4.5,4.63,13.45,13.45,0,0,0-1.65,6.68A13.28,13.28,0,0,0,12.48,52a12.12,12.12,0,0,0,4.5,4.6A12.56,12.56,0,0,0,23.45,58.24Z" transform="translate(-3.72 -3.31)"/><path d="M61.93,62.59a22.19,22.19,0,0,1-7.28-1.24,13.67,13.67,0,0,1-5.84-3.73,2,2,0,0,1-.56-1.68A2.46,2.46,0,0,1,51,53.82a2.55,2.55,0,0,1,1.55.81,9.59,9.59,0,0,0,4,2.68,15.22,15.22,0,0,0,5.44.93q4.59,0,6.65-1.59a4.89,4.89,0,0,0,2.11-3.82,4.39,4.39,0,0,0-2.11-3.7,18.06,18.06,0,0,0-7-2.27q-6.28-1-9.21-3.48a7.54,7.54,0,0,1-2.92-5.9,8.23,8.23,0,0,1,1.68-5.29A10.17,10.17,0,0,1,55.65,29,17.33,17.33,0,0,1,61.8,28,16.66,16.66,0,0,1,69,29.39a13.14,13.14,0,0,1,4.88,3.86,2.22,2.22,0,0,1,.5,1.68,2.06,2.06,0,0,1-1,1.43,2.51,2.51,0,0,1-1.71.28,2.83,2.83,0,0,1-1.64-.9,9.43,9.43,0,0,0-3.61-2.65,12.38,12.38,0,0,0-4.72-.84,9.55,9.55,0,0,0-5.47,1.4,4.15,4.15,0,0,0-2.05,3.52,4,4,0,0,0,.77,2.48,6.31,6.31,0,0,0,2.67,1.87,23.91,23.91,0,0,0,5.32,1.36,23.84,23.84,0,0,1,7.37,2.21,9.69,9.69,0,0,1,3.85,3.42,8.26,8.26,0,0,1,1.15,4.26,8.13,8.13,0,0,1-1.71,5.13,11.24,11.24,0,0,1-4.72,3.45A18,18,0,0,1,61.93,62.59Z" transform="translate(-3.72 -3.31)"/><path d="M113.89,76.82a2.41,2.41,0,0,1-1.74-.65,2.34,2.34,0,0,1-.68-1.77V56.13a15.15,15.15,0,0,1-5.41,4.69,15.87,15.87,0,0,1-7.52,1.77A16.35,16.35,0,0,1,84,54.14a17.72,17.72,0,0,1-2.2-8.83A17.41,17.41,0,0,1,84,36.42a16.86,16.86,0,0,1,6.19-6.19,18.29,18.29,0,0,1,17.56,0,16.67,16.67,0,0,1,6.15,6.13,17.93,17.93,0,0,1,2.4,8.73V74.4a2.3,2.3,0,0,1-.69,1.77A2.38,2.38,0,0,1,113.89,76.82ZM99,58.24a12.36,12.36,0,0,0,6.43-1.68A12.16,12.16,0,0,0,110,51.93a14.24,14.24,0,0,0,0-13.27A12.45,12.45,0,0,0,105.47,34a12.91,12.91,0,0,0-12.84,0,12.58,12.58,0,0,0-4.53,4.63,13.94,13.94,0,0,0,0,13.27,12.28,12.28,0,0,0,4.53,4.63A12.42,12.42,0,0,0,99,58.24Z" transform="translate(-3.72 -3.31)"/><path d="M43.84,82.66a8,8,0,1,1,8-8A8,8,0,0,1,43.84,82.66Zm0-11.66a3.63,3.63,0,1,0,3.63,3.63A3.64,3.64,0,0,0,43.84,71Z" transform="translate(-3.72 -3.31)"/><path d="M29.26,76.83H5.92a2.2,2.2,0,0,1,0-4.4H29.26a2.2,2.2,0,1,1,0,4.4Z" transform="translate(-3.72 -3.31)"/><path d="M101.13,76.83H58.4a2.2,2.2,0,1,1,0-4.4h42.73a2.2,2.2,0,1,1,0,4.4Z" transform="translate(-3.72 -3.31)"/><path d="M267.82,74.8a26.23,26.23,0,0,1-10-1.88,24,24,0,0,1-7.93-5.24,23.23,23.23,0,0,1-5.18-8,27.28,27.28,0,0,1-1.81-10.07,27,27,0,0,1,1.81-10,23.34,23.34,0,0,1,5.18-7.94,23.93,23.93,0,0,1,7.93-5.23,27.64,27.64,0,0,1,20,0,24.45,24.45,0,0,1,7.93,5.23,23,23,0,0,1,5.2,7.94,26.75,26.75,0,0,1,1.82,10A27.08,27.08,0,0,1,291,59.72a22.85,22.85,0,0,1-5.2,8,24.48,24.48,0,0,1-7.93,5.24A26.05,26.05,0,0,1,267.82,74.8Zm0-5a19.73,19.73,0,0,0,7.87-1.54,18.88,18.88,0,0,0,10.38-10.66,22.41,22.41,0,0,0,0-15.86,19,19,0,0,0-4.1-6.4,18.71,18.71,0,0,0-6.28-4.23,20.07,20.07,0,0,0-7.87-1.51,20.36,20.36,0,0,0-7.9,1.51,18.38,18.38,0,0,0-6.27,4.23,19.86,19.86,0,0,0-4.11,6.4,22.12,22.12,0,0,0,0,15.86,19.86,19.86,0,0,0,4.11,6.4,18.74,18.74,0,0,0,6.27,4.26A20,20,0,0,0,267.82,69.78Z" transform="translate(-3.72 -3.31)"/><path d="M305,88.84a2.5,2.5,0,0,1-2.7-2.69V56.86a17.65,17.65,0,0,1,2.36-8.81,16.91,16.91,0,0,1,14.95-8.5,17.44,17.44,0,0,1,8.94,2.29,17,17,0,0,1,6.21,6.24,17.66,17.66,0,0,1,2.29,9A18.31,18.31,0,0,1,334.89,66,16.45,16.45,0,0,1,329,72.2a16.16,16.16,0,0,1-8.53,2.28,15.79,15.79,0,0,1-7.4-1.72,15.32,15.32,0,0,1-5.4-4.55V86.15A2.52,2.52,0,0,1,305,88.84Zm14.61-19.12a12.05,12.05,0,0,0,6.3-1.66,11.92,11.92,0,0,0,4.39-4.55,13.9,13.9,0,0,0,0-12.95A12.21,12.21,0,0,0,325.92,46a11.89,11.89,0,0,0-6.3-1.69A11.63,11.63,0,0,0,313.45,46a11.91,11.91,0,0,0-4.36,4.55,14.14,14.14,0,0,0,0,12.95,11.69,11.69,0,0,0,10.53,6.21Z" transform="translate(-3.72 -3.31)"/><path d="M362.33,74.48a18.22,18.22,0,0,1-9.09-2.22A16.17,16.17,0,0,1,347,66.08a17.81,17.81,0,0,1-2.26-9A18.66,18.66,0,0,1,346.9,48a16.13,16.13,0,0,1,5.86-6.18,16.41,16.41,0,0,1,8.63-2.26,15.69,15.69,0,0,1,8.31,2.17,14.36,14.36,0,0,1,5.45,6,19.14,19.14,0,0,1,1.91,8.71,2.32,2.32,0,0,1-.68,1.73,2.46,2.46,0,0,1-1.76.66H348.41V54.48h26.52l-2.69,1.88A13.65,13.65,0,0,0,371,50.15a10.22,10.22,0,0,0-3.76-4.32,10.52,10.52,0,0,0-5.83-1.57,11.66,11.66,0,0,0-6.24,1.63,10.63,10.63,0,0,0-4.08,4.54,15,15,0,0,0-1.41,6.62,13.15,13.15,0,0,0,1.63,6.59,11.83,11.83,0,0,0,4.48,4.51,13,13,0,0,0,6.56,1.63,13.65,13.65,0,0,0,4.36-.75,10.7,10.7,0,0,0,3.54-1.88,2.94,2.94,0,0,1,1.72-.6,2.22,2.22,0,0,1,1.6.53,2.49,2.49,0,0,1,1,1.76,2,2,0,0,1-.85,1.63,16.8,16.8,0,0,1-5.27,2.89A18.31,18.31,0,0,1,362.33,74.48Z" transform="translate(-3.72 -3.31)"/><path d="M387.91,74.17a2.67,2.67,0,0,1-2-.72,2.59,2.59,0,0,1-.72-1.91v-29a2.49,2.49,0,0,1,2.69-2.69,2.59,2.59,0,0,1,1.92.72,2.67,2.67,0,0,1,.72,2v29a2.48,2.48,0,0,1-2.64,2.63Zm26.59,0a2.63,2.63,0,0,1-1.94-.75,2.56,2.56,0,0,1-.75-1.88v-16a12.27,12.27,0,0,0-1.41-6.24,9.14,9.14,0,0,0-3.86-3.64A12.25,12.25,0,0,0,401,44.45a11.73,11.73,0,0,0-5.3,1.16,9.57,9.57,0,0,0-3.73,3.13,7.75,7.75,0,0,0-1.38,4.55h-3.64a13.63,13.63,0,0,1,2.1-7.06,14.26,14.26,0,0,1,5.3-4.92,15.19,15.19,0,0,1,7.4-1.82,16.53,16.53,0,0,1,7.87,1.85,13.66,13.66,0,0,1,5.52,5.43,17.46,17.46,0,0,1,2,8.78v16a2.58,2.58,0,0,1-2.64,2.63Z" transform="translate(-3.72 -3.31)"/><path d="M443.6,74.8a23.06,23.06,0,0,1-7.49-1.19,19,19,0,0,1-6.06-3.36,13.58,13.58,0,0,1-3.82-5,1.94,1.94,0,0,1,0-2,2.85,2.85,0,0,1,3.67-1,3,3,0,0,1,1.38,1.48A10.05,10.05,0,0,0,434,66.8a13.57,13.57,0,0,0,4.27,2.2,17.76,17.76,0,0,0,5.36.78,14.93,14.93,0,0,0,5.83-1.07,9.51,9.51,0,0,0,4.08-3.07,7.94,7.94,0,0,0,1.5-4.89,8.66,8.66,0,0,0-2.76-6.36q-2.76-2.73-8.78-3.42-7.46-.88-11.69-4.58a11.69,11.69,0,0,1-4.23-9.16,11,11,0,0,1,2.13-6.74,13.62,13.62,0,0,1,5.83-4.39,21.84,21.84,0,0,1,8.4-1.53,17.56,17.56,0,0,1,6.4,1.09,16.92,16.92,0,0,1,4.92,2.92,17.22,17.22,0,0,1,3.48,4.08,2.83,2.83,0,0,1,.54,2.16,2.42,2.42,0,0,1-1.16,1.6,2.75,2.75,0,0,1-2.11.16,2.82,2.82,0,0,1-1.66-1.35A12.81,12.81,0,0,0,452,32.44a10.37,10.37,0,0,0-3.42-2,14.76,14.76,0,0,0-4.76-.82,14.16,14.16,0,0,0-7.9,2,6.65,6.65,0,0,0-3.08,6,7.13,7.13,0,0,0,1.1,3.79,8.49,8.49,0,0,0,3.7,3,24.25,24.25,0,0,0,7.12,1.88q7.77,1,11.66,4.71a12.79,12.79,0,0,1,3.89,9.72A13.8,13.8,0,0,1,459,66.77a12.3,12.3,0,0,1-3.61,4.42,16.59,16.59,0,0,1-5.36,2.7A22.56,22.56,0,0,1,443.6,74.8Z" transform="translate(-3.72 -3.31)"/><path d="M485.43,74.48a17.74,17.74,0,0,1-9-2.25A16.59,16.59,0,0,1,470.25,66a17.81,17.81,0,0,1-2.26-9,17.91,17.91,0,0,1,2.26-9,16.59,16.59,0,0,1,6.18-6.21,17.74,17.74,0,0,1,9-2.26,17.45,17.45,0,0,1,8.9,2.26A16.66,16.66,0,0,1,500.48,48a18.36,18.36,0,0,1,2.32,9,17.71,17.71,0,0,1-2.26,9,16.45,16.45,0,0,1-6.18,6.21A17.61,17.61,0,0,1,485.43,74.48Zm0-4.76A11.77,11.77,0,0,0,496,63.54a13.29,13.29,0,0,0,1.56-6.49A13.49,13.49,0,0,0,496,50.53,11.84,11.84,0,0,0,491.7,46a12,12,0,0,0-6.27-1.66A12.21,12.21,0,0,0,479.12,46a11.9,11.9,0,0,0-4.38,4.55,13.18,13.18,0,0,0-1.6,6.52,13,13,0,0,0,1.6,6.49,12,12,0,0,0,4.38,4.52A12.11,12.11,0,0,0,485.43,69.72Z" transform="translate(-3.72 -3.31)"/><path d="M527,74.55a16.69,16.69,0,0,1-7.93-1.85,13.47,13.47,0,0,1-5.49-5.43,17.78,17.78,0,0,1-2-8.78v-16a2.63,2.63,0,1,1,5.26,0v16a12.06,12.06,0,0,0,1.45,6.24,9.28,9.28,0,0,0,3.89,3.64,12.09,12.09,0,0,0,5.51,1.22A11.88,11.88,0,0,0,533,68.43a9.64,9.64,0,0,0,3.77-3.13,7.75,7.75,0,0,0,1.38-4.55h3.57a13.79,13.79,0,0,1-7.34,12A15.16,15.16,0,0,1,527,74.55Zm13.8-.38a2.59,2.59,0,0,1-1.91-.72,2.68,2.68,0,0,1-.72-2v-29a2.48,2.48,0,0,1,2.63-2.63,2.69,2.69,0,0,1,1.94.72,2.5,2.5,0,0,1,.76,1.91v29a2.58,2.58,0,0,1-.76,2A2.69,2.69,0,0,1,540.8,74.17Z" transform="translate(-3.72 -3.31)"/><path d="M557.48,74.17a2.65,2.65,0,0,1-2-.72,2.55,2.55,0,0,1-.73-1.91v-29a2.5,2.5,0,0,1,2.7-2.69,2.59,2.59,0,0,1,1.91.72,2.67,2.67,0,0,1,.73,2v29a2.49,2.49,0,0,1-2.64,2.63Zm26.59,0a2.63,2.63,0,0,1-1.94-.75,2.53,2.53,0,0,1-.76-1.88v-16A12.27,12.27,0,0,0,580,49.31a9.06,9.06,0,0,0-3.85-3.64,12.25,12.25,0,0,0-5.58-1.22,11.7,11.7,0,0,0-5.3,1.16,9.6,9.6,0,0,0-3.74,3.13,7.74,7.74,0,0,0-1.37,4.55h-3.64a13.63,13.63,0,0,1,2.1-7.06,14.26,14.26,0,0,1,5.3-4.92,15.16,15.16,0,0,1,7.4-1.82,16.56,16.56,0,0,1,7.87,1.85,13.66,13.66,0,0,1,5.52,5.43,17.57,17.57,0,0,1,2,8.78v16a2.56,2.56,0,0,1-2.63,2.63Z" transform="translate(-3.72 -3.31)"/><path d="M613,74.48a17.53,17.53,0,0,1-8.91-2.28A17,17,0,0,1,597.83,66a17.66,17.66,0,0,1-2.29-9,18.1,18.1,0,0,1,2.2-8.91,16.62,16.62,0,0,1,6-6.24,16.14,16.14,0,0,1,8.53-2.29,15.61,15.61,0,0,1,7.36,1.73A15.29,15.29,0,0,1,625,45.83V27.89a2.58,2.58,0,0,1,.78-2,2.95,2.95,0,0,1,3.86,0,2.63,2.63,0,0,1,.75,2V57.18A18.11,18.11,0,0,1,627.94,66a16.9,16.9,0,0,1-15,8.49Zm0-4.76A11.67,11.67,0,0,0,619.22,68a12.34,12.34,0,0,0,4.32-4.55,13.9,13.9,0,0,0,0-12.95A12,12,0,0,0,619.22,46,11.83,11.83,0,0,0,613,44.32a12,12,0,0,0-10.66,6.21,13.68,13.68,0,0,0,0,12.95A12.44,12.44,0,0,0,606.74,68,11.87,11.87,0,0,0,613,69.72Z" transform="translate(-3.72 -3.31)"/><path d="M664.9,74.8a26.23,26.23,0,0,1-10-1.88,24,24,0,0,1-7.93-5.24,23.09,23.09,0,0,1-5.18-8,27.28,27.28,0,0,1-1.82-10.07,27,27,0,0,1,1.82-10,23.2,23.2,0,0,1,5.18-7.94,23.93,23.93,0,0,1,7.93-5.23,27.64,27.64,0,0,1,20,0,24.45,24.45,0,0,1,7.93,5.23,23,23,0,0,1,5.2,7.94,27,27,0,0,1,1.82,10A27.28,27.28,0,0,1,688,59.72a22.85,22.85,0,0,1-5.2,8,24.48,24.48,0,0,1-7.93,5.24A26.05,26.05,0,0,1,664.9,74.8Zm0-5a19.73,19.73,0,0,0,7.87-1.54,19,19,0,0,0,10.38-10.66,22.56,22.56,0,0,0,0-15.86,18.91,18.91,0,0,0-4.11-6.4,18.57,18.57,0,0,0-6.27-4.23,20.07,20.07,0,0,0-7.87-1.51,20.36,20.36,0,0,0-7.9,1.51,18.38,18.38,0,0,0-6.27,4.23,19.53,19.53,0,0,0-4.11,6.4,22.12,22.12,0,0,0,0,15.86,19.53,19.53,0,0,0,4.11,6.4A18.74,18.74,0,0,0,657,68.24,20,20,0,0,0,664.9,69.78ZM683,73.36,669.54,60a2.47,2.47,0,0,1,0-3.76,2.42,2.42,0,0,1,1.79-.76,2.62,2.62,0,0,1,1.85.76l13.48,13.48a2.56,2.56,0,0,1,0,3.64,2.52,2.52,0,0,1-3.7,0Z" transform="translate(-3.72 -3.31)"/><path d="M714.19,74.55a16.66,16.66,0,0,1-7.93-1.85,13.47,13.47,0,0,1-5.49-5.43,17.68,17.68,0,0,1-2-8.78v-16a2.63,2.63,0,1,1,5.26,0v16a12,12,0,0,0,1.45,6.24,9.31,9.31,0,0,0,3.88,3.64,12.11,12.11,0,0,0,5.52,1.22,11.91,11.91,0,0,0,5.33-1.16A9.64,9.64,0,0,0,724,65.3a7.82,7.82,0,0,0,1.38-4.55h3.57a13.83,13.83,0,0,1-2.07,7.06,14,14,0,0,1-5.27,4.92A15.16,15.16,0,0,1,714.19,74.55Zm13.8-.38a2.57,2.57,0,0,1-1.91-.72,2.68,2.68,0,0,1-.72-2v-29A2.48,2.48,0,0,1,728,39.87a2.69,2.69,0,0,1,1.94.72,2.54,2.54,0,0,1,.76,1.91v29a2.62,2.62,0,0,1-.76,2A2.69,2.69,0,0,1,728,74.17Z" transform="translate(-3.72 -3.31)"/><path d="M757.71,74.48a18.22,18.22,0,0,1-9.09-2.22,16.31,16.31,0,0,1-6.21-6.18,17.91,17.91,0,0,1-2.26-9A18.55,18.55,0,0,1,742.29,48a16.06,16.06,0,0,1,5.86-6.18,16.37,16.37,0,0,1,8.62-2.26,15.64,15.64,0,0,1,8.31,2.17,14.45,14.45,0,0,1,5.46,6,19.27,19.27,0,0,1,1.91,8.71,2.29,2.29,0,0,1-.69,1.73,2.45,2.45,0,0,1-1.76.66H743.79V54.48h26.53l-2.7,1.88a13.78,13.78,0,0,0-1.25-6.21,10.25,10.25,0,0,0-3.77-4.32,10.52,10.52,0,0,0-5.83-1.57,11.71,11.71,0,0,0-6.24,1.63,10.61,10.61,0,0,0-4.07,4.54A15,15,0,0,0,745,57.05a13.15,13.15,0,0,0,1.64,6.59,11.76,11.76,0,0,0,4.48,4.51,12.94,12.94,0,0,0,6.55,1.63,13.6,13.6,0,0,0,4.36-.75,10.6,10.6,0,0,0,3.54-1.88,3,3,0,0,1,1.73-.6,2.22,2.22,0,0,1,1.6.53,2.48,2.48,0,0,1,1,1.76,1.93,1.93,0,0,1-.85,1.63,16.69,16.69,0,0,1-5.27,2.89A18.31,18.31,0,0,1,757.71,74.48Z" transform="translate(-3.72 -3.31)"/><path d="M795.4,74.55a16.66,16.66,0,0,1-7.93-1.85A13.47,13.47,0,0,1,782,67.27a17.68,17.68,0,0,1-2-8.78v-16a2.64,2.64,0,1,1,5.27,0v16a12.06,12.06,0,0,0,1.44,6.24,9.4,9.4,0,0,0,3.89,3.64,12.11,12.11,0,0,0,5.52,1.22,11.91,11.91,0,0,0,5.33-1.16,9.61,9.61,0,0,0,3.76-3.13,7.75,7.75,0,0,0,1.38-4.55h3.58a13.79,13.79,0,0,1-7.34,12A15.19,15.19,0,0,1,795.4,74.55Zm13.8-.38a2.57,2.57,0,0,1-1.91-.72,2.64,2.64,0,0,1-.73-2v-29a2.49,2.49,0,0,1,2.64-2.63,2.69,2.69,0,0,1,1.94.72,2.53,2.53,0,0,1,.75,1.91v29a2.62,2.62,0,0,1-.75,2A2.69,2.69,0,0,1,809.2,74.17Z" transform="translate(-3.72 -3.31)"/><path d="M838.92,74.48a18.22,18.22,0,0,1-9.09-2.22,16.31,16.31,0,0,1-6.21-6.18,17.91,17.91,0,0,1-2.26-9A18.55,18.55,0,0,1,823.5,48a16.06,16.06,0,0,1,5.86-6.18A16.37,16.37,0,0,1,838,39.55a15.64,15.64,0,0,1,8.31,2.17,14.45,14.45,0,0,1,5.46,6,19.27,19.27,0,0,1,1.91,8.71,2.29,2.29,0,0,1-.69,1.73,2.45,2.45,0,0,1-1.76.66H825V54.48h26.53l-2.7,1.88a13.78,13.78,0,0,0-1.25-6.21,10.25,10.25,0,0,0-3.77-4.32A10.52,10.52,0,0,0,838,44.26a11.71,11.71,0,0,0-6.24,1.63,10.61,10.61,0,0,0-4.07,4.54,15,15,0,0,0-1.42,6.62,13.15,13.15,0,0,0,1.64,6.59,11.76,11.76,0,0,0,4.48,4.51,12.94,12.94,0,0,0,6.55,1.63,13.6,13.6,0,0,0,4.36-.75,10.6,10.6,0,0,0,3.54-1.88,3,3,0,0,1,1.73-.6,2.22,2.22,0,0,1,1.6.53,2.48,2.48,0,0,1,1,1.76,1.93,1.93,0,0,1-.85,1.63A16.69,16.69,0,0,1,845,73.36,18.31,18.31,0,0,1,838.92,74.48Z" transform="translate(-3.72 -3.31)"/><path d="M181.94,105.31a2.5,2.5,0,0,1-2.5-2.5v-97a2.5,2.5,0,0,1,5,0v97A2.5,2.5,0,0,1,181.94,105.31Z" transform="translate(-3.72 -3.31)"/></svg>