<svg xmlns="http://www.w3.org/2000/svg" width="48" height="48" viewBox="0 0 48 48" fill="none">
    <mask id="mask0_2477_2052" style="mask-type:alpha" maskUnits="userSpaceOnUse" x="0" y="0" width="48" height="48">
        <rect width="48" height="48" fill="#D9D9D9"/>
    </mask>
    <g mask="url(#mask0_2477_2052)">
        <path d="M4 39.9999V35.2999C4 34.1666 4.28333 33.1249 4.85 32.1749C5.41667 31.2249 6.26667 30.4999 7.4 29.9999C9.8 28.9332 12 28.1666 14 27.6999C16 27.2332 18 26.9999 20 26.9999C20.9667 26.9999 21.9917 27.0582 23.075 27.1749C24.1583 27.2916 25.2667 27.4999 26.4 27.7999L23.95 30.2499C23.2833 30.1832 22.625 30.1249 21.975 30.0749C21.325 30.0249 20.6667 29.9999 20 29.9999C18.0667 29.9999 16.3083 30.1749 14.725 30.5249C13.1417 30.8749 11.1 31.5999 8.6 32.6999C8.03333 32.9666 7.625 33.3499 7.375 33.8499C7.125 34.3499 7 34.8332 7 35.2999V36.9999H22.95L25.95 39.9999H4ZM31.25 40.7999L24.2 33.7499L26.3 31.6499L31.25 36.5999L41.9 25.9499L44 28.0499L31.25 40.7999ZM20 23.8999C17.8 23.8999 16 23.1999 14.6 21.7999C13.2 20.3999 12.5 18.5999 12.5 16.3999C12.5 14.1999 13.2 12.3999 14.6 10.9999C16 9.5999 17.8 8.8999 20 8.8999C22.2 8.8999 24 9.5999 25.4 10.9999C26.8 12.3999 27.5 14.1999 27.5 16.3999C27.5 18.5999 26.8 20.3999 25.4 21.7999C24 23.1999 22.2 23.8999 20 23.8999ZM20 20.8999C21.3 20.8999 22.375 20.4749 23.225 19.6249C24.075 18.7749 24.5 17.6999 24.5 16.3999C24.5 15.0999 24.075 14.0249 23.225 13.1749C22.375 12.3249 21.3 11.8999 20 11.8999C18.7 11.8999 17.625 12.3249 16.775 13.1749C15.925 14.0249 15.5 15.0999 15.5 16.3999C15.5 17.6999 15.925 18.7749 16.775 19.6249C17.625 20.4749 18.7 20.8999 20 20.8999Z" fill="#8491B8"/>
    </g>
</svg>