<svg id="Ebene_1" data-name="Ebene 1" xmlns="http://www.w3.org/2000/svg" viewBox="0 0 342.1 166.16"><path d="M136.35,273a53.43,53.43,0,0,1-27-6.8,49.41,49.41,0,0,1-18.71-18.7,57.47,57.47,0,0,1,0-54.2,49.41,49.41,0,0,1,18.71-18.7,53.43,53.43,0,0,1,27-6.8,53,53,0,0,1,26.91,6.8,49.55,49.55,0,0,1,18.6,18.7,55.22,55.22,0,0,1,7,27.19,52.83,52.83,0,0,1-6.9,27,50.31,50.31,0,0,1-18.7,18.7A53,53,0,0,1,136.35,273Zm0-13.22a38.06,38.06,0,0,0,19.64-5.1,36.32,36.32,0,0,0,13.6-14,41.05,41.05,0,0,0,4.91-20.21,41.62,41.62,0,0,0-4.91-20.3A36.15,36.15,0,0,0,156,186.16a40.37,40.37,0,0,0-39.28,0A36.66,36.66,0,0,0,103,200.23a40.92,40.92,0,0,0-5,20.3,40.36,40.36,0,0,0,5,20.21,36.84,36.84,0,0,0,13.69,14A38.06,38.06,0,0,0,136.35,259.82Z" transform="translate(-76.4 -167.84)" style="fill:#fff"/><path d="M253.25,273a67.38,67.38,0,0,1-22.1-3.78,41.52,41.52,0,0,1-17.75-11.33,6.06,6.06,0,0,1-1.7-5.1,7.67,7.67,0,0,1,2.83-4.91,7.53,7.53,0,0,1,10.2.94,28.82,28.82,0,0,0,12,8.12,46.16,46.16,0,0,0,16.52,2.84q14,0,20.21-4.82t6.42-11.61q0-6.81-6.42-11.24t-21.15-6.9q-19.08-3-28-10.57t-8.87-17.94q0-9.63,5.1-16.06a31,31,0,0,1,13.59-9.63,52.59,52.59,0,0,1,18.7-3.21q12.66,0,21.82,4.34a39.82,39.82,0,0,1,14.82,11.72A6.6,6.6,0,0,1,291,189a6.13,6.13,0,0,1-3,4.35,7.63,7.63,0,0,1-5.19.85,8.44,8.44,0,0,1-5-2.74,28.91,28.91,0,0,0-11-8,37.69,37.69,0,0,0-14.35-2.55q-10.4,0-16.63,4.25t-6.23,10.67a12.44,12.44,0,0,0,2.36,7.56q2.37,3.21,8.12,5.66a72.49,72.49,0,0,0,16.15,4.16q14.16,2.27,22.38,6.7t11.71,10.39a25.11,25.11,0,0,1,3.5,12.94,24.74,24.74,0,0,1-5.2,15.58,34.08,34.08,0,0,1-14.35,10.48A54.87,54.87,0,0,1,253.25,273Z" transform="translate(-76.4 -167.84)" style="fill:#fff"/><path d="M411.14,316.29a7.33,7.33,0,0,1-5.29-2,7.09,7.09,0,0,1-2.08-5.38V253.4a45.74,45.74,0,0,1-16.43,14.25A48.16,48.16,0,0,1,364.49,273a49.65,49.65,0,0,1-44.29-25.69,53.66,53.66,0,0,1-6.7-26.82,52.81,52.81,0,0,1,6.89-27,50.89,50.89,0,0,1,18.79-18.8,55.42,55.42,0,0,1,53.36-.09,50.53,50.53,0,0,1,18.69,18.6,54.56,54.56,0,0,1,7.28,26.54v89.14a7.09,7.09,0,0,1-2.08,5.38A7.33,7.33,0,0,1,411.14,316.29ZM366,259.82a37.58,37.58,0,0,0,19.55-5.1,37,37,0,0,0,13.6-14.07,43.16,43.16,0,0,0,0-40.33,37.92,37.92,0,0,0-13.6-14.06,39.16,39.16,0,0,0-39,0,38.42,38.42,0,0,0-13.79,14.06,42.42,42.42,0,0,0,0,40.33A37.38,37.38,0,0,0,366,259.82Z" transform="translate(-76.4 -167.84)" style="fill:#fff"/><path d="M198.32,334a24.38,24.38,0,1,1,24.38-24.38A24.41,24.41,0,0,1,198.32,334Zm0-35.41a11,11,0,1,0,11,11A11,11,0,0,0,198.32,298.59Z" transform="translate(-76.4 -167.84)" style="fill:#fff"/><path d="M154,316.3H83.08a6.68,6.68,0,1,1,0-13.36H154a6.68,6.68,0,0,1,0,13.36Z" transform="translate(-76.4 -167.84)" style="fill:#fff"/><path d="M372.38,316.3H242.53a6.68,6.68,0,0,1,0-13.36H372.38a6.68,6.68,0,0,1,0,13.36Z" transform="translate(-76.4 -167.84)" style="fill:#fff"/></svg>